Asap-Bold.ufo
<glyph name="quotedbl" format="1">
  <advance width="319"/>
  <unicode hex="0022"/>
  <outline>
    <contour>
      <point x="230" y="702" type="line" smooth="yes"/>
      <point x="188" y="702"/>
      <point x="170" y="691"/>
      <point x="170" y="670" type="curve" smooth="yes"/>
      <point x="170" y="665" type="line"/>
      <point x="192" y="494" type="line" smooth="yes"/>
      <point x="195" y="473"/>
      <point x="205" y="464"/>
      <point x="226" y="464" type="curve"/>
      <point x="244" y="464" type="line" smooth="yes"/>
      <point x="265" y="464"/>
      <point x="275" y="473"/>
      <point x="278" y="494" type="curve" smooth="yes"/>
      <point x="285" y="553"/>
      <point x="300" y="662"/>
      <point x="300" y="670" type="curve"/>
      <point x="300" y="691"/>
      <point x="282" y="702"/>
      <point x="240" y="702" type="curve" smooth="yes"/>
    </contour>
    <contour>
      <point x="79" y="702" type="line" smooth="yes"/>
      <point x="37" y="702"/>
      <point x="19" y="691"/>
      <point x="19" y="670" type="curve" smooth="yes"/>
      <point x="19" y="665" type="line"/>
      <point x="41" y="494" type="line" smooth="yes"/>
      <point x="44" y="473"/>
      <point x="54" y="464"/>
      <point x="75" y="464" type="curve"/>
      <point x="93" y="464" type="line" smooth="yes"/>
      <point x="114" y="464"/>
      <point x="124" y="473"/>
      <point x="127" y="494" type="curve" smooth="yes"/>
      <point x="134" y="553"/>
      <point x="149" y="662"/>
      <point x="149" y="670" type="curve"/>
      <point x="149" y="691"/>
      <point x="131" y="702"/>
      <point x="89" y="702" type="curve" smooth="yes"/>
    </contour>
  </outline>
</glyph>
<glyph name="ampersand" format="1">
  <advance width="624"/>
  <unicode hex="0026"/>
  <outline>
    <contour>
      <point x="126" y="708"/>
      <point x="46" y="640"/>
      <point x="46" y="533" type="curve" smooth="yes"/>
      <point x="46" y="464"/>
      <point x="82" y="411"/>
      <point x="139" y="387" type="curve"/>
      <point x="139" y="383" type="line"/>
      <point x="60" y="353"/>
      <point x="23" y="286"/>
      <point x="23" y="204" type="curve" smooth="yes"/>
      <point x="23" y="71"/>
      <point x="116" y="-8"/>
      <point x="249" y="-8" type="curve" smooth="yes"/>
      <point x="328" y="-8"/>
      <point x="374" y="4"/>
      <point x="430" y="32" type="curve"/>
      <point x="455" y="5"/>
      <point x="491" y="-8"/>
      <point x="539" y="-8" type="curve" smooth="yes"/>
      <point x="570" y="-8"/>
      <point x="635" y="-5"/>
      <point x="635" y="41" type="curve" smooth="yes"/>
      <point x="635" y="49"/>
      <point x="624" y="113"/>
      <point x="604" y="113" type="curve" smooth="yes"/>
      <point x="598" y="113"/>
      <point x="586" y="109"/>
      <point x="577" y="109" type="curve" smooth="yes"/>
      <point x="551" y="109"/>
      <point x="541" y="122"/>
      <point x="541" y="152" type="curve" smooth="yes"/>
      <point x="541" y="309" type="line"/>
      <point x="590" y="309" type="line" smooth="yes"/>
      <point x="611" y="309"/>
      <point x="620" y="324"/>
      <point x="620" y="359" type="curve" smooth="yes"/>
      <point x="620" y="376" type="line" smooth="yes"/>
      <point x="620" y="411"/>
      <point x="611" y="426"/>
      <point x="590" y="426" type="curve" smooth="yes"/>
      <point x="541" y="426" type="line"/>
      <point x="541" y="521" type="line" smooth="yes"/>
      <point x="541" y="542"/>
      <point x="526" y="553"/>
      <point x="491" y="553" type="curve" smooth="yes"/>
      <point x="460" y="553" type="line" smooth="yes"/>
      <point x="427" y="553"/>
      <point x="409" y="542"/>
      <point x="406" y="521" type="curve" smooth="yes"/>
      <point x="393" y="426" type="line"/>
      <point x="299" y="426" type="line" smooth="yes"/>
      <point x="234" y="426"/>
      <point x="196" y="459"/>
      <point x="196" y="509" type="curve" smooth="yes"/>
      <point x="196" y="558"/>
      <point x="223" y="591"/>
      <point x="277" y="591" type="curve" smooth="yes"/>
      <point x="300" y="591"/>
      <point x="321" y="584"/>
      <point x="326" y="584" type="curve" smooth="yes"/>
      <point x="343" y="584"/>
      <point x="361" y="618"/>
      <point x="361" y="666" type="curve" smooth="yes"/>
      <point x="361" y="705"/>
      <point x="297" y="708"/>
      <point x="251" y="708" type="curve" smooth="yes"/>
    </contour>
    <contour>
      <point x="393" y="130" type="line"/>
      <point x="393" y="110"/>
      <point x="400" y="89"/>
      <point x="412" y="69" type="curve"/>
      <point x="449" y="164" type="line"/>
      <point x="371" y="120"/>
      <point x="321" y="109"/>
      <point x="272" y="109" type="curve" smooth="yes"/>
      <point x="213" y="109"/>
      <point x="173" y="144"/>
      <point x="173" y="206" type="curve" smooth="yes"/>
      <point x="173" y="272"/>
      <point x="206" y="309"/>
      <point x="290" y="309" type="curve" smooth="yes"/>
      <point x="393" y="309" type="line"/>
    </contour>
  </outline>
</glyph>
<glyph name="plus" format="1">
  <advance width="560"/>
  <unicode hex="002B"/>
  <outline>
    <contour>
      <point x="272" y="473" type="line" smooth="yes"/>
      <point x="237" y="473"/>
      <point x="222" y="464"/>
      <point x="222" y="443" type="curve" smooth="yes"/>
      <point x="222" y="289" type="line"/>
      <point x="71" y="289" type="line" smooth="yes"/>
      <point x="50" y="289"/>
      <point x="41" y="274"/>
      <point x="41" y="239" type="curve" smooth="yes"/>
      <point x="41" y="232" type="line" smooth="yes"/>
      <point x="41" y="197"/>
      <point x="50" y="182"/>
      <point x="71" y="182" type="curve"/>
      <point x="222" y="182" type="line"/>
      <point x="222" y="30" type="line" smooth="yes"/>
      <point x="222" y="9"/>
      <point x="237" y="0"/>
      <point x="272" y="0" type="curve" smooth="yes"/>
      <point x="286" y="0" type="line" smooth="yes"/>
      <point x="321" y="0"/>
      <point x="336" y="9"/>
      <point x="336" y="30" type="curve" smooth="yes"/>
      <point x="336" y="182" type="line"/>
      <point x="489" y="182" type="line" smooth="yes"/>
      <point x="510" y="182"/>
      <point x="519" y="197"/>
      <point x="519" y="232" type="curve" smooth="yes"/>
      <point x="519" y="239" type="line" smooth="yes"/>
      <point x="519" y="274"/>
      <point x="510" y="289"/>
      <point x="489" y="289" type="curve" smooth="yes"/>
      <point x="336" y="289" type="line"/>
      <point x="336" y="443" type="line" smooth="yes"/>
      <point x="336" y="464"/>
      <point x="321" y="473"/>
      <point x="286" y="473" type="curve" smooth="yes"/>
    </contour>
  </outline>
</glyph>
<glyph name="period" format="1">
  <advance width="198"/>
  <unicode hex="002E"/>
  <outline>
    <contour>
      <point x="82" y="154" type="line" smooth="yes"/>
      <point x="40" y="154"/>
      <point x="22" y="143"/>
      <point x="22" y="122" type="curve" smooth="yes"/>
      <point x="22" y="30" type="line" smooth="yes"/>
      <point x="22" y="9"/>
      <point x="40" y="-2"/>
      <point x="82" y="-2" type="curve" smooth="yes"/>
      <point x="114" y="-2" type="line" smooth="yes"/>
      <point x="156" y="-2"/>
      <point x="174" y="9"/>
      <point x="174" y="30" type="curve" smooth="yes"/>
      <point x="174" y="122" type="line" smooth="yes"/>
      <point x="174" y="143"/>
      <point x="156" y="154"/>
      <point x="114" y="154" type="curve" smooth="yes"/>
    </contour>
  </outline>
</glyph>
<glyph name="four" format="1">
  <advance width="535"/>
  <unicode hex="0034"/>
  <outline>
    <contour>
      <point x="371" y="702" type="line" smooth="yes"/>
      <point x="342" y="702"/>
      <point x="322" y="700"/>
      <point x="310" y="683" type="curve" smooth="yes"/>
      <point x="13" y="246" type="line" smooth="yes"/>
      <point x="12" y="244"/>
      <point x="11" y="240"/>
      <point x="11" y="235" type="curve" smooth="yes"/>
      <point x="11" y="208"/>
      <point x="31" y="142"/>
      <point x="48" y="142" type="curve"/>
      <point x="310" y="142" type="line"/>
      <point x="310" y="30" type="line" smooth="yes"/>
      <point x="310" y="9"/>
      <point x="328" y="-2"/>
      <point x="370" y="-2" type="curve" smooth="yes"/>
      <point x="398" y="-2" type="line" smooth="yes"/>
      <point x="440" y="-2"/>
      <point x="458" y="9"/>
      <point x="458" y="30" type="curve" smooth="yes"/>
      <point x="458" y="142" type="line"/>
      <point x="496" y="142" type="line" smooth="yes"/>
      <point x="517" y="142"/>
      <point x="526" y="157"/>
      <point x="526" y="192" type="curve" smooth="yes"/>
      <point x="526" y="209" type="line" smooth="yes"/>
      <point x="526" y="244"/>
      <point x="517" y="259"/>
      <point x="496" y="259" type="curve" smooth="yes"/>
      <point x="458" y="259" type="line"/>
      <point x="458" y="670" type="line" smooth="yes"/>
      <point x="458" y="691"/>
      <point x="440" y="702"/>
      <point x="398" y="702" type="curve" smooth="yes"/>
    </contour>
    <contour>
      <point x="310" y="488" type="line"/>
      <point x="310" y="259" type="line"/>
      <point x="160" y="259" type="line"/>
      <point x="306" y="489" type="line"/>
    </contour>
  </outline>
</glyph>
<glyph name="greater" format="1">
  <advance width="560"/>
  <unicode hex="003E"/>
  <outline>
    <contour>
      <point x="45" y="479"/>
      <point x="39" y="467"/>
      <point x="39" y="438" type="curve" smooth="yes"/>
      <point x="39" y="422" type="line" smooth="yes"/>
      <point x="39" y="391"/>
      <point x="47" y="370"/>
      <point x="69" y="361" type="curve" smooth="yes"/>
      <point x="361" y="245" type="line"/>
      <point x="68" y="129" type="line" smooth="yes"/>
      <point x="46" y="120"/>
      <point x="38" y="99"/>
      <point x="38" y="68" type="curve" smooth="yes"/>
      <point x="38" y="52" type="line" smooth="yes"/>
      <point x="38" y="23"/>
      <point x="44" y="10"/>
      <point x="53" y="10" type="curve" smooth="yes"/>
      <point x="57" y="10"/>
      <point x="62" y="11"/>
      <point x="68" y="14" type="curve" smooth="yes"/>
      <point x="488" y="194" type="line" smooth="yes"/>
      <point x="508" y="202"/>
      <point x="516" y="214"/>
      <point x="516" y="236" type="curve" smooth="yes"/>
      <point x="516" y="255" type="line" smooth="yes"/>
      <point x="516" y="276"/>
      <point x="508" y="288"/>
      <point x="488" y="297" type="curve" smooth="yes"/>
      <point x="69" y="476" type="line" smooth="yes"/>
      <point x="63" y="478"/>
      <point x="58" y="479"/>
      <point x="54" y="479" type="curve" smooth="yes"/>
    </contour>
  </outline>
</glyph>
<glyph name="C" format="1">
  <advance width="619"/>
  <unicode hex="0043"/>
  <outline>
    <contour>
      <point x="157" y="708"/>
      <point x="45" y="590"/>
      <point x="45" y="352" type="curve" smooth="yes"/>
      <point x="45" y="105"/>
      <point x="150" y="-8"/>
      <point x="374" y="-8" type="curve" smooth="yes"/>
      <point x="454" y="-8"/>
      <point x="597" y="16"/>
      <point x="597" y="76" type="curve" smooth="yes"/>
      <point x="597" y="93"/>
      <point x="570" y="163"/>
      <point x="538" y="163" type="curve" smooth="yes"/>
      <point x="523" y="163"/>
      <point x="469" y="123"/>
      <point x="374" y="123" type="curve" smooth="yes"/>
      <point x="259" y="123"/>
      <point x="203" y="201"/>
      <point x="203" y="351" type="curve" smooth="yes"/>
      <point x="203" y="501"/>
      <point x="258" y="576"/>
      <point x="376" y="576" type="curve" smooth="yes"/>
      <point x="471" y="576"/>
      <point x="511" y="544"/>
      <point x="523" y="544" type="curve" smooth="yes"/>
      <point x="548" y="544"/>
      <point x="588" y="610"/>
      <point x="588" y="638" type="curve" smooth="yes"/>
      <point x="588" y="680"/>
      <point x="467" y="708"/>
      <point x="379" y="708" type="curve" smooth="yes"/>
    </contour>
    <contour>
      <point x="368" y="700" type="move" name="top"/>
    </contour>
    <contour>
      <point x="373" y="0" type="move" name="bottom"/>
    </contour>
  </outline>
</glyph>
<glyph name="D" format="1">
  <advance width="695"/>
  <unicode hex="0044"/>
  <outline>
    <contour>
      <point x="109" y="700" type="line" smooth="yes"/>
      <point x="81" y="700"/>
      <point x="69" y="688"/>
      <point x="69" y="660" type="curve" smooth="yes"/>
      <point x="69" y="40" type="line" smooth="yes"/>
      <point x="69" y="12"/>
      <point x="81" y="0"/>
      <point x="109" y="0" type="curve" smooth="yes"/>
      <point x="333" y="0" type="line" smooth="yes"/>
      <point x="539" y="0"/>
      <point x="653" y="124"/>
      <point x="653" y="350" type="curve" smooth="yes"/>
      <point x="653" y="576"/>
      <point x="539" y="700"/>
      <point x="333" y="700" type="curve" smooth="yes"/>
    </contour>
    <contour>
      <point x="440" y="569"/>
      <point x="495" y="492"/>
      <point x="495" y="350" type="curve" smooth="yes"/>
      <point x="495" y="208"/>
      <point x="440" y="131"/>
      <point x="333" y="131" type="curve" smooth="yes"/>
      <point x="224" y="131" type="line"/>
      <point x="224" y="569" type="line"/>
      <point x="333" y="569" type="line" smooth="yes"/>
    </contour>
    <contour>
      <point x="348" y="350" type="move" name="center"/>
    </contour>
    <contour>
      <point x="331" y="0" type="move" name="bottom"/>
    </contour>
    <contour>
      <point x="333" y="700" type="move" name="top"/>
    </contour>
  </outline>
</glyph>
<glyph name="I" format="1">
  <advance width="282"/>
  <unicode hex="0049"/>
  <outline>
    <contour>
      <point x="123" y="703" type="line" smooth="yes"/>
      <point x="81" y="703"/>
      <point x="63" y="691"/>
      <point x="63" y="670" type="curve" smooth="yes"/>
      <point x="63" y="30" type="line" smooth="yes"/>
      <point x="63" y="9"/>
      <point x="81" y="-3"/>
      <point x="123" y="-3" type="curve" smooth="yes"/>
      <point x="158" y="-3" type="line" smooth="yes"/>
      <point x="200" y="-3"/>
      <point x="218" y="9"/>
      <point x="218" y="30" type="curve" smooth="yes"/>
      <point x="218" y="670" type="line" smooth="yes"/>
      <point x="218" y="691"/>
      <point x="200" y="703"/>
      <point x="158" y="703" type="curve" smooth="yes"/>
    </contour>
    <contour>
      <point x="182" y="0" type="move" name="ogonek"/>
    </contour>
    <contour>
      <point x="141" y="0" type="move" name="bottom"/>
    </contour>
    <contour>
      <point x="141" y="700" type="move" name="top"/>
    </contour>
  </outline>
</glyph>
<glyph name="N" format="1">
  <advance width="719"/>
  <unicode hex="004E"/>
  <outline>
    <contour>
      <point x="561" y="702" type="line" smooth="yes"/>
      <point x="519" y="702"/>
      <point x="501" y="691"/>
      <point x="501" y="670" type="curve" smooth="yes"/>
      <point x="501" y="270" type="line"/>
      <point x="474" y="311" type="line"/>
      <point x="238" y="675" type="line" smooth="yes"/>
      <point x="223" y="698"/>
      <point x="201" y="702"/>
      <point x="172" y="702" type="curve" smooth="yes"/>
      <point x="129" y="702" type="line" smooth="yes"/>
      <point x="87" y="702"/>
      <point x="69" y="691"/>
      <point x="69" y="670" type="curve" smooth="yes"/>
      <point x="69" y="30" type="line" smooth="yes"/>
      <point x="69" y="9"/>
      <point x="87" y="-2"/>
      <point x="129" y="-2" type="curve" smooth="yes"/>
      <point x="158" y="-2" type="line" smooth="yes"/>
      <point x="200" y="-2"/>
      <point x="218" y="9"/>
      <point x="218" y="30" type="curve" smooth="yes"/>
      <point x="218" y="435" type="line"/>
      <point x="239" y="403" type="line"/>
      <point x="486" y="25" type="line" smooth="yes"/>
      <point x="501" y="2"/>
      <point x="523" y="-2"/>
      <point x="552" y="-2" type="curve" smooth="yes"/>
      <point x="590" y="-2" type="line" smooth="yes"/>
      <point x="632" y="-2"/>
      <point x="650" y="9"/>
      <point x="650" y="30" type="curve" smooth="yes"/>
      <point x="650" y="670" type="line" smooth="yes"/>
      <point x="650" y="691"/>
      <point x="632" y="702"/>
      <point x="590" y="702" type="curve" smooth="yes"/>
    </contour>
    <contour>
      <point x="360" y="700" type="move" name="top"/>
    </contour>
    <contour>
      <point x="360" y="0" type="move" name="bottom"/>
    </contour>
  </outline>
</glyph>
<glyph name="O" format="1">
  <advance width="731"/>
  <unicode hex="004F"/>
  <outline>
    <contour>
      <point x="160" y="708"/>
      <point x="45" y="581"/>
      <point x="45" y="350" type="curve" smooth="yes"/>
      <point x="45" y="119"/>
      <point x="160" y="-8"/>
      <point x="366" y="-8" type="curve" smooth="yes"/>
      <point x="572" y="-8"/>
      <point x="686" y="119"/>
      <point x="686" y="350" type="curve" smooth="yes"/>
      <point x="686" y="581"/>
      <point x="572" y="708"/>
      <point x="366" y="708" type="curve" smooth="yes"/>
    </contour>
    <contour>
      <point x="473" y="576"/>
      <point x="528" y="497"/>
      <point x="528" y="350" type="curve" smooth="yes"/>
      <point x="528" y="203"/>
      <point x="473" y="123"/>
      <point x="366" y="123" type="curve" smooth="yes"/>
      <point x="259" y="123"/>
      <point x="203" y="203"/>
      <point x="203" y="350" type="curve" smooth="yes"/>
      <point x="203" y="497"/>
      <point x="259" y="576"/>
      <point x="366" y="576" type="curve" smooth="yes"/>
    </contour>
    <contour>
      <point x="443" y="0" type="move" name="ogonek"/>
    </contour>
    <contour>
      <point x="366" y="700" type="move" name="top"/>
    </contour>
    <contour>
      <point x="474" y="682" type="move" name="horn"/>
    </contour>
    <contour>
      <point x="367" y="0" type="move" name="bottom"/>
    </contour>
  </outline>
</glyph>
<glyph name="R" format="1">
  <advance width="610"/>
  <unicode hex="0052"/>
  <outline>
    <contour>
      <point x="109" y="700" type="line" smooth="yes"/>
      <point x="81" y="700"/>
      <point x="69" y="688"/>
      <point x="69" y="660" type="curve" smooth="yes"/>
      <point x="69" y="30" type="line" smooth="yes"/>
      <point x="69" y="9"/>
      <point x="87" y="-2"/>
      <point x="129" y="-2" type="curve" smooth="yes"/>
      <point x="163" y="-2" type="line" smooth="yes"/>
      <point x="205" y="-2"/>
      <point x="223" y="9"/>
      <point x="223" y="30" type="curve" smooth="yes"/>
      <point x="223" y="274" type="line"/>
      <point x="262" y="274" type="line" smooth="yes"/>
      <point x="327" y="274"/>
      <point x="343" y="254"/>
      <point x="363" y="214" type="curve"/>
      <point x="442" y="19" type="line" smooth="yes"/>
      <point x="448" y="3"/>
      <point x="471" y="-2"/>
      <point x="500" y="-2" type="curve" smooth="yes"/>
      <point x="541" y="-2" type="line" smooth="yes"/>
      <point x="582" y="-2"/>
      <point x="601" y="6"/>
      <point x="601" y="18" type="curve" smooth="yes"/>
      <point x="601" y="23"/>
      <point x="599" y="29"/>
      <point x="596" y="37" type="curve" smooth="yes"/>
      <point x="508" y="257" type="line" smooth="yes"/>
      <point x="491" y="300"/>
      <point x="461" y="339"/>
      <point x="436" y="349" type="curve"/>
      <point x="436" y="353" type="line"/>
      <point x="505" y="379"/>
      <point x="553" y="435"/>
      <point x="553" y="512" type="curve" smooth="yes"/>
      <point x="553" y="632"/>
      <point x="477" y="700"/>
      <point x="304" y="700" type="curve" smooth="yes"/>
    </contour>
    <contour>
      <point x="363" y="569"/>
      <point x="395" y="539"/>
      <point x="395" y="493" type="curve" smooth="yes"/>
      <point x="395" y="445"/>
      <point x="359" y="407"/>
      <point x="318" y="407" type="curve" smooth="yes"/>
      <point x="223" y="407" type="line"/>
      <point x="223" y="569" type="line"/>
      <point x="311" y="569" type="line" smooth="yes"/>
    </contour>
    <contour>
      <point x="305" y="700" type="move" name="top"/>
    </contour>
    <contour>
      <point x="305" y="0" type="move" name="bottom"/>
    </contour>
  </outline>
</glyph>
<glyph name="W" format="1">
  <advance width="882"/>
  <unicode hex="0057"/>
  <outline>
    <contour>
      <point x="813" y="702" type="line" smooth="yes"/>
      <point x="774" y="702"/>
      <point x="751" y="692"/>
      <point x="746" y="671" type="curve" smooth="yes"/>
      <point x="668" y="349" type="line" smooth="yes"/>
      <point x="659" y="311"/>
      <point x="647" y="253"/>
      <point x="634" y="198" type="curve"/>
      <point x="622" y="254"/>
      <point x="609" y="311"/>
      <point x="600" y="349" type="curve" smooth="yes"/>
      <point x="521" y="681" type="line" smooth="yes"/>
      <point x="517" y="697"/>
      <point x="498" y="702"/>
      <point x="466" y="702" type="curve" smooth="yes"/>
      <point x="428" y="702" type="line" smooth="yes"/>
      <point x="396" y="702"/>
      <point x="377" y="697"/>
      <point x="373" y="681" type="curve" smooth="yes"/>
      <point x="291" y="349" type="line" smooth="yes"/>
      <point x="282" y="315"/>
      <point x="266" y="261"/>
      <point x="257" y="205" type="curve"/>
      <point x="245" y="261"/>
      <point x="234" y="315"/>
      <point x="226" y="349" type="curve" smooth="yes"/>
      <point x="151" y="671" type="line" smooth="yes"/>
      <point x="146" y="692"/>
      <point x="123" y="702"/>
      <point x="84" y="702" type="curve" smooth="yes"/>
      <point x="58" y="702" type="line" smooth="yes"/>
      <point x="15" y="702"/>
      <point x="-4" y="692"/>
      <point x="-4" y="676" type="curve" smooth="yes"/>
      <point x="-4" y="672"/>
      <point x="-4" y="667"/>
      <point x="-2" y="661" type="curve" smooth="yes"/>
      <point x="156" y="19" type="line" smooth="yes"/>
      <point x="159" y="5"/>
      <point x="179" y="-2"/>
      <point x="211" y="-2" type="curve" smooth="yes"/>
      <point x="283" y="-2" type="line" smooth="yes"/>
      <point x="311" y="-2"/>
      <point x="334" y="5"/>
      <point x="338" y="19" type="curve" smooth="yes"/>
      <point x="423" y="365" type="line"/>
      <point x="440" y="433" type="line"/>
      <point x="456" y="365" type="line"/>
      <point x="538" y="19" type="line" smooth="yes"/>
      <point x="541" y="5"/>
      <point x="565" y="-2"/>
      <point x="593" y="-2" type="curve" smooth="yes"/>
      <point x="666" y="-2" type="line" smooth="yes"/>
      <point x="694" y="-2"/>
      <point x="717" y="5"/>
      <point x="721" y="19" type="curve" smooth="yes"/>
      <point x="884" y="661" type="line" smooth="yes"/>
      <point x="885" y="667"/>
      <point x="886" y="672"/>
      <point x="886" y="676" type="curve" smooth="yes"/>
      <point x="886" y="692"/>
      <point x="867" y="702"/>
      <point x="824" y="702" type="curve" smooth="yes"/>
    </contour>
    <contour>
      <point x="441" y="700" type="move" name="top"/>
    </contour>
  </outline>
</glyph>
<glyph name="Z" format="1">
  <advance width="616"/>
  <unicode hex="005A"/>
  <outline>
    <contour>
      <point x="86" y="700" type="line" smooth="yes"/>
      <point x="65" y="700"/>
      <point x="56" y="685"/>
      <point x="56" y="650" type="curve" smooth="yes"/>
      <point x="56" y="619" type="line" smooth="yes"/>
      <point x="56" y="584"/>
      <point x="65" y="569"/>
      <point x="86" y="569" type="curve" smooth="yes"/>
      <point x="364" y="569" type="line"/>
      <point x="29" y="99" type="line" smooth="yes"/>
      <point x="28" y="97"/>
      <point x="27" y="93"/>
      <point x="27" y="89" type="curve" smooth="yes"/>
      <point x="27" y="62"/>
      <point x="49" y="0"/>
      <point x="66" y="0" type="curve"/>
      <point x="550" y="0" type="line" smooth="yes"/>
      <point x="571" y="0"/>
      <point x="580" y="15"/>
      <point x="580" y="50" type="curve" smooth="yes"/>
      <point x="580" y="81" type="line" smooth="yes"/>
      <point x="580" y="116"/>
      <point x="571" y="131"/>
      <point x="550" y="131" type="curve" smooth="yes"/>
      <point x="245" y="131" type="line"/>
      <point x="579" y="600" type="line" smooth="yes"/>
      <point x="580" y="602"/>
      <point x="580" y="604"/>
      <point x="580" y="608" type="curve" smooth="yes"/>
      <point x="580" y="634"/>
      <point x="559" y="700"/>
      <point x="543" y="700" type="curve" smooth="yes"/>
    </contour>
    <contour>
      <point x="308" y="700" type="move" name="top"/>
    </contour>
    <contour>
      <point x="299" y="0" type="move" name="bottom"/>
    </contour>
  </outline>
</glyph>
<glyph name="c" format="1">
  <advance width="485"/>
  <unicode hex="0063"/>
  <outline>
    <contour>
      <point x="120" y="531"/>
      <point x="42" y="436"/>
      <point x="42" y="258" type="curve" smooth="yes"/>
      <point x="42" y="79"/>
      <point x="123" y="-8"/>
      <point x="294" y="-8" type="curve" smooth="yes"/>
      <point x="327" y="-8"/>
      <point x="469" y="6"/>
      <point x="469" y="62" type="curve" smooth="yes"/>
      <point x="469" y="82"/>
      <point x="439" y="138"/>
      <point x="417" y="138" type="curve" smooth="yes"/>
      <point x="413" y="138"/>
      <point x="407" y="135"/>
      <point x="399" y="132" type="curve" smooth="yes"/>
      <point x="380" y="123"/>
      <point x="348" y="109"/>
      <point x="301" y="109" type="curve" smooth="yes"/>
      <point x="225" y="109"/>
      <point x="194" y="159"/>
      <point x="194" y="262" type="curve" smooth="yes"/>
      <point x="194" y="364"/>
      <point x="227" y="414"/>
      <point x="307" y="414" type="curve" smooth="yes"/>
      <point x="349" y="414"/>
      <point x="376" y="401"/>
      <point x="394" y="392" type="curve" smooth="yes"/>
      <point x="402" y="388"/>
      <point x="408" y="385"/>
      <point x="412" y="385" type="curve" smooth="yes"/>
      <point x="429" y="385"/>
      <point x="465" y="443"/>
      <point x="465" y="462" type="curve" smooth="yes"/>
      <point x="465" y="508"/>
      <point x="370" y="531"/>
      <point x="299" y="531" type="curve" smooth="yes"/>
    </contour>
    <contour>
      <point x="275" y="523" type="move" name="top"/>
    </contour>
    <contour>
      <point x="292" y="0" type="move" name="bottom"/>
    </contour>
  </outline>
</glyph>
<glyph name="s" format="1">
  <advance width="413"/>
  <unicode hex="0073"/>
  <outline>
    <contour>
      <point x="114" y="531"/>
      <point x="43" y="471"/>
      <point x="43" y="367" type="curve" smooth="yes"/>
      <point x="43" y="267"/>
      <point x="108" y="236"/>
      <point x="157" y="217" type="curve" smooth="yes"/>
      <point x="202" y="199"/>
      <point x="243" y="189"/>
      <point x="243" y="151" type="curve" smooth="yes"/>
      <point x="243" y="124"/>
      <point x="223" y="109"/>
      <point x="185" y="109" type="curve" smooth="yes"/>
      <point x="132" y="109"/>
      <point x="99" y="137"/>
      <point x="84" y="137" type="curve" smooth="yes"/>
      <point x="64" y="137"/>
      <point x="31" y="86"/>
      <point x="31" y="60" type="curve" smooth="yes"/>
      <point x="31" y="17"/>
      <point x="122" y="-8"/>
      <point x="197" y="-8" type="curve" smooth="yes"/>
      <point x="322" y="-8"/>
      <point x="393" y="61"/>
      <point x="393" y="163" type="curve" smooth="yes"/>
      <point x="393" y="242"/>
      <point x="351" y="279"/>
      <point x="306" y="301" type="curve" smooth="yes"/>
      <point x="253" y="326"/>
      <point x="193" y="336"/>
      <point x="193" y="380" type="curve" smooth="yes"/>
      <point x="193" y="405"/>
      <point x="213" y="415"/>
      <point x="246" y="415" type="curve" smooth="yes"/>
      <point x="293" y="415"/>
      <point x="321" y="394"/>
      <point x="332" y="394" type="curve" smooth="yes"/>
      <point x="351" y="394"/>
      <point x="375" y="451"/>
      <point x="375" y="473" type="curve" smooth="yes"/>
      <point x="375" y="515"/>
      <point x="283" y="531"/>
      <point x="225" y="531" type="curve" smooth="yes"/>
    </contour>
    <contour>
      <point x="207" y="523" type="move" name="top"/>
    </contour>
    <contour>
      <point x="207" y="0" type="move" name="bottom"/>
    </contour>
  </outline>
</glyph>
<glyph name="w" format="1">
  <advance width="747"/>
  <unicode hex="0077"/>
  <outline>
    <contour>
      <point x="626" y="525"/>
      <point x="607" y="518"/>
      <point x="603" y="504" type="curve" smooth="yes"/>
      <point x="534" y="240" type="line"/>
      <point x="530" y="225"/>
      <point x="526" y="211"/>
      <point x="522" y="196" type="curve"/>
      <point x="519" y="210"/>
      <point x="515" y="223"/>
      <point x="512" y="237" type="curve"/>
      <point x="448" y="504" type="line" smooth="yes"/>
      <point x="445" y="518"/>
      <point x="421" y="525"/>
      <point x="393" y="525" type="curve" smooth="yes"/>
      <point x="369" y="525" type="line" smooth="yes"/>
      <point x="337" y="525"/>
      <point x="317" y="518"/>
      <point x="314" y="504" type="curve" smooth="yes"/>
      <point x="250" y="243" type="line"/>
      <point x="246" y="227"/>
      <point x="242" y="212"/>
      <point x="238" y="196" type="curve"/>
      <point x="234" y="211"/>
      <point x="231" y="225"/>
      <point x="227" y="240" type="curve"/>
      <point x="159" y="504" type="line" smooth="yes"/>
      <point x="155" y="519"/>
      <point x="134" y="525"/>
      <point x="80" y="525" type="curve" smooth="yes"/>
      <point x="37" y="525"/>
      <point x="18" y="515"/>
      <point x="18" y="499" type="curve" smooth="yes"/>
      <point x="18" y="495"/>
      <point x="18" y="490"/>
      <point x="20" y="484" type="curve" smooth="yes"/>
      <point x="146" y="19" type="line" smooth="yes"/>
      <point x="150" y="5"/>
      <point x="168" y="-2"/>
      <point x="201" y="-2" type="curve" smooth="yes"/>
      <point x="250" y="-2" type="line" smooth="yes"/>
      <point x="278" y="-2"/>
      <point x="302" y="5"/>
      <point x="305" y="19" type="curve" smooth="yes"/>
      <point x="362" y="256" type="line"/>
      <point x="366" y="271"/>
      <point x="369" y="285"/>
      <point x="373" y="300" type="curve"/>
      <point x="377" y="286"/>
      <point x="380" y="271"/>
      <point x="384" y="257" type="curve"/>
      <point x="445" y="19" type="line" smooth="yes"/>
      <point x="449" y="5"/>
      <point x="468" y="-2"/>
      <point x="500" y="-2" type="curve" smooth="yes"/>
      <point x="549" y="-2" type="line" smooth="yes"/>
      <point x="577" y="-2"/>
      <point x="600" y="5"/>
      <point x="604" y="19" type="curve" smooth="yes"/>
      <point x="722" y="484" type="line" smooth="yes"/>
      <point x="723" y="490"/>
      <point x="724" y="495"/>
      <point x="724" y="499" type="curve" smooth="yes"/>
      <point x="724" y="515"/>
      <point x="705" y="525"/>
      <point x="662" y="525" type="curve" smooth="yes"/>
    </contour>
    <contour>
      <point x="374" y="523" type="move" name="top"/>
    </contour>
  </outline>
</glyph>
<glyph name="sterling" format="1">
  <advance width="491"/>
  <unicode hex="00A3"/>
  <outline>
    <contour>
      <point x="172" y="708"/>
      <point x="94" y="640"/>
      <point x="94" y="502" type="curve" smooth="yes"/>
      <point x="94" y="428" type="line"/>
      <point x="61" y="428" type="line" smooth="yes"/>
      <point x="40" y="428"/>
      <point x="31" y="413"/>
      <point x="31" y="378" type="curve" smooth="yes"/>
      <point x="31" y="361" type="line" smooth="yes"/>
      <point x="31" y="326"/>
      <point x="40" y="311"/>
      <point x="61" y="311" type="curve" smooth="yes"/>
      <point x="94" y="311" type="line"/>
      <point x="94" y="175" type="line" smooth="yes"/>
      <point x="94" y="107"/>
      <point x="18" y="100"/>
      <point x="18" y="59" type="curve" smooth="yes"/>
      <point x="18" y="40" type="line" smooth="yes"/>
      <point x="18" y="12"/>
      <point x="30" y="0"/>
      <point x="58" y="0" type="curve" smooth="yes"/>
      <point x="421" y="0" type="line" smooth="yes"/>
      <point x="442" y="0"/>
      <point x="451" y="15"/>
      <point x="451" y="50" type="curve" smooth="yes"/>
      <point x="451" y="67" type="line" smooth="yes"/>
      <point x="451" y="102"/>
      <point x="442" y="117"/>
      <point x="421" y="117" type="curve" smooth="yes"/>
      <point x="198" y="117" type="line"/>
      <point x="226" y="145"/>
      <point x="239" y="188"/>
      <point x="239" y="251" type="curve" smooth="yes"/>
      <point x="239" y="311" type="line"/>
      <point x="347" y="311" type="line" smooth="yes"/>
      <point x="368" y="311"/>
      <point x="377" y="326"/>
      <point x="377" y="361" type="curve" smooth="yes"/>
      <point x="377" y="378" type="line" smooth="yes"/>
      <point x="377" y="413"/>
      <point x="368" y="428"/>
      <point x="347" y="428" type="curve" smooth="yes"/>
      <point x="239" y="428" type="line"/>
      <point x="239" y="507" type="line" smooth="yes"/>
      <point x="239" y="570"/>
      <point x="270" y="596"/>
      <point x="330" y="596" type="curve" smooth="yes"/>
      <point x="364" y="596"/>
      <point x="389" y="588"/>
      <point x="394" y="588" type="curve" smooth="yes"/>
      <point x="411" y="588"/>
      <point x="434" y="627"/>
      <point x="434" y="663" type="curve" smooth="yes"/>
      <point x="434" y="708"/>
      <point x="347" y="708"/>
      <point x="324" y="708" type="curve" smooth="yes"/>
    </contour>
  </outline>
</glyph>
<glyph name="macron" format="1">
  <advance width="320"/>
  <unicode hex="00AF"/>
  <outline>
    <contour>
      <point x="51" y="692" type="line" smooth="yes"/>
      <point x="30" y="692"/>
      <point x="21" y="680"/>
      <point x="21" y="652" type="curve" smooth="yes"/>
      <point x="21" y="637" type="line" smooth="yes"/>
      <point x="21" y="609"/>
      <point x="30" y="597"/>
      <point x="51" y="597" type="curve"/>
      <point x="266" y="597" type="line" smooth="yes"/>
      <point x="287" y="597"/>
      <point x="296" y="609"/>
      <point x="296" y="637" type="curve" smooth="yes"/>
      <point x="296" y="652" type="line" smooth="yes"/>
      <point x="296" y="680"/>
      <point x="287" y="692"/>
      <point x="266" y="692" type="curve" smooth="yes"/>
    </contour>
    <contour>
      <point x="157" y="700" type="move" name="top"/>
    </contour>
    <contour>
      <point x="159" y="523" type="move" name="_top"/>
    </contour>
  </outline>
</glyph>
<glyph name="periodcentered" format="1">
  <advance width="267"/>
  <unicode hex="00B7"/>
  <outline>
    <contour>
      <point x="102" y="429"/>
      <point x="71" y="398"/>
      <point x="71" y="359" type="curve" smooth="yes"/>
      <point x="71" y="320"/>
      <point x="102" y="289"/>
      <point x="141" y="289" type="curve" smooth="yes"/>
      <point x="180" y="289"/>
      <point x="211" y="320"/>
      <point x="211" y="359" type="curve" smooth="yes"/>
      <point x="211" y="398"/>
      <point x="180" y="429"/>
      <point x="141" y="429" type="curve" smooth="yes"/>
    </contour>
    <contour>
      <point x="140" y="335" type="move" name="_center"/>
    </contour>
  </outline>
</glyph>
<glyph name="Thorn" format="1">
  <advance width="567"/>
  <unicode hex="00DE"/>
  <outline>
    <contour>
      <point x="128" y="702" type="line" smooth="yes"/>
      <point x="86" y="702"/>
      <point x="68" y="691"/>
      <point x="68" y="670" type="curve" smooth="yes"/>
      <point x="68" y="30" type="line" smooth="yes"/>
      <point x="68" y="9"/>
      <point x="86" y="-2"/>
      <point x="128" y="-2" type="curve" smooth="yes"/>
      <point x="162" y="-2" type="line" smooth="yes"/>
      <point x="204" y="-2"/>
      <point x="222" y="9"/>
      <point x="222" y="30" type="curve" smooth="yes"/>
      <point x="222" y="155" type="line"/>
      <point x="335" y="155" type="line" smooth="yes"/>
      <point x="389" y="155"/>
      <point x="563" y="181"/>
      <point x="563" y="374" type="curve" smooth="yes"/>
      <point x="563" y="567"/>
      <point x="414" y="593"/>
      <point x="325" y="593" type="curve" smooth="yes"/>
      <point x="222" y="593" type="line"/>
      <point x="222" y="670" type="line" smooth="yes"/>
      <point x="222" y="691"/>
      <point x="204" y="702"/>
      <point x="162" y="702" type="curve" smooth="yes"/>
    </contour>
    <contour>
      <point x="356" y="462"/>
      <point x="405" y="446"/>
      <point x="405" y="374" type="curve" smooth="yes"/>
      <point x="405" y="302"/>
      <point x="356" y="287"/>
      <point x="318" y="287" type="curve" smooth="yes"/>
      <point x="222" y="287" type="line"/>
      <point x="222" y="462" type="line"/>
      <point x="318" y="462" type="line" smooth="yes"/>
    </contour>
  </outline>
</glyph>
<glyph name="Lslash" format="1">
  <advance width="486"/>
  <unicode hex="0141"/>
  <outline>
    <contour>
      <point x="131" y="702" type="line" smooth="yes"/>
      <point x="89" y="702"/>
      <point x="71" y="691"/>
      <point x="71" y="670" type="curve" smooth="yes"/>
      <point x="71" y="381" type="line"/>
      <point x="52" y="369" type="line" smooth="yes"/>
      <point x="34" y="358"/>
      <point x="26" y="346"/>
      <point x="26" y="324" type="curve" smooth="yes"/>
      <point x="26" y="304" type="line" smooth="yes"/>
      <point x="26" y="290"/>
      <point x="29" y="284"/>
      <point x="37" y="284" type="curve" smooth="yes"/>
      <point x="41" y="284"/>
      <point x="46" y="285"/>
      <point x="52" y="289" type="curve" smooth="yes"/>
      <point x="71" y="301" type="line"/>
      <point x="71" y="40" type="line" smooth="yes"/>
      <point x="71" y="12"/>
      <point x="83" y="0"/>
      <point x="111" y="0" type="curve" smooth="yes"/>
      <point x="448" y="0" type="line" smooth="yes"/>
      <point x="469" y="0"/>
      <point x="478" y="15"/>
      <point x="478" y="50" type="curve" smooth="yes"/>
      <point x="478" y="81" type="line" smooth="yes"/>
      <point x="478" y="116"/>
      <point x="469" y="131"/>
      <point x="448" y="131" type="curve" smooth="yes"/>
      <point x="225" y="131" type="line"/>
      <point x="225" y="395" type="line"/>
      <point x="312" y="448" type="line" smooth="yes"/>
      <point x="330" y="459"/>
      <point x="338" y="473"/>
      <point x="338" y="494" type="curve" smooth="yes"/>
      <point x="338" y="514" type="line" smooth="yes"/>
      <point x="338" y="527"/>
      <point x="334" y="534"/>
      <point x="327" y="534" type="curve" smooth="yes"/>
      <point x="323" y="534"/>
      <point x="318" y="532"/>
      <point x="312" y="528" type="curve" smooth="yes"/>
      <point x="225" y="475" type="line"/>
      <point x="225" y="670" type="line" smooth="yes"/>
      <point x="225" y="691"/>
      <point x="207" y="702"/>
      <point x="165" y="702" type="curve" smooth="yes"/>
    </contour>
  </outline>
</glyph>
<glyph name="lslash" format="1">
  <advance width="293"/>
  <unicode hex="0142"/>
  <outline>
    <contour>
      <point x="119" y="754" type="line" smooth="yes"/>
      <point x="77" y="754"/>
      <point x="59" y="743"/>
      <point x="59" y="722" type="curve" smooth="yes"/>
      <point x="59" y="403" type="line"/>
      <point x="37" y="390" type="line" smooth="yes"/>
      <point x="19" y="379"/>
      <point x="11" y="365"/>
      <point x="11" y="344" type="curve" smooth="yes"/>
      <point x="11" y="324" type="line" smooth="yes"/>
      <point x="11" y="310"/>
      <point x="14" y="304"/>
      <point x="21" y="304" type="curve" smooth="yes"/>
      <point x="25" y="304"/>
      <point x="30" y="306"/>
      <point x="37" y="310" type="curve" smooth="yes"/>
      <point x="59" y="323" type="line"/>
      <point x="59" y="154" type="line" smooth="yes"/>
      <point x="59" y="43"/>
      <point x="111" y="-8"/>
      <point x="205" y="-8" type="curve" smooth="yes"/>
      <point x="236" y="-8"/>
      <point x="301" y="-5"/>
      <point x="301" y="41" type="curve" smooth="yes"/>
      <point x="301" y="49"/>
      <point x="290" y="113"/>
      <point x="270" y="113" type="curve" smooth="yes"/>
      <point x="264" y="113"/>
      <point x="252" y="109"/>
      <point x="243" y="109" type="curve" smooth="yes"/>
      <point x="217" y="109"/>
      <point x="207" y="122"/>
      <point x="207" y="152" type="curve" smooth="yes"/>
      <point x="207" y="412" type="line"/>
      <point x="231" y="427" type="line" smooth="yes"/>
      <point x="249" y="438"/>
      <point x="257" y="450"/>
      <point x="257" y="472" type="curve" smooth="yes"/>
      <point x="257" y="492" type="line" smooth="yes"/>
      <point x="257" y="506"/>
      <point x="253" y="512"/>
      <point x="246" y="512" type="curve" smooth="yes"/>
      <point x="242" y="512"/>
      <point x="237" y="510"/>
      <point x="231" y="507" type="curve" smooth="yes"/>
      <point x="207" y="492" type="line"/>
      <point x="207" y="722" type="line" smooth="yes"/>
      <point x="207" y="743"/>
      <point x="189" y="754"/>
      <point x="147" y="754" type="curve" smooth="yes"/>
    </contour>
  </outline>
</glyph>
<glyph name="ring" format="1">
  <advance width="320"/>
  <unicode hex="02DA"/>
  <outline>
    <contour>
      <point x="104" y="749"/>
      <point x="61" y="705"/>
      <point x="61" y="649" type="curve" smooth="yes"/>
      <point x="61" y="593"/>
      <point x="104" y="550"/>
      <point x="160" y="550" type="curve" smooth="yes"/>
      <point x="216" y="550"/>
      <point x="260" y="593"/>
      <point x="260" y="649" type="curve" smooth="yes"/>
      <point x="260" y="705"/>
      <point x="216" y="749"/>
      <point x="160" y="749" type="curve" smooth="yes"/>
    </contour>
    <contour>
      <point x="180" y="685"/>
      <point x="197" y="668"/>
      <point x="197" y="648" type="curve" smooth="yes"/>
      <point x="197" y="628"/>
      <point x="180" y="612"/>
      <point x="160" y="612" type="curve" smooth="yes"/>
      <point x="140" y="612"/>
      <point x="124" y="628"/>
      <point x="124" y="648" type="curve" smooth="yes"/>
      <point x="124" y="668"/>
      <point x="140" y="685"/>
      <point x="160" y="685" type="curve" smooth="yes"/>
    </contour>
    <contour>
      <point x="161" y="700" type="move" name="top"/>
    </contour>
    <contour>
      <point x="161" y="523" type="move" name="_top"/>
    </contour>
  </outline>
</glyph>
<glyph name="hungarumlaut" format="1">
  <advance width="384"/>
  <unicode hex="02DD"/>
  <outline>
    <contour>
      <point x="285" y="734"/>
      <point x="252" y="728"/>
      <point x="240" y="707" type="curve" smooth="yes"/>
      <point x="194" y="626"/>
      <point x="175" y="601"/>
      <point x="175" y="590" type="curve" smooth="yes"/>
      <point x="175" y="579"/>
      <point x="182" y="575"/>
      <point x="206" y="575" type="curve" smooth="yes"/>
      <point x="253" y="575"/>
      <point x="270" y="588"/>
      <point x="281" y="600" type="curve" smooth="yes"/>
      <point x="378" y="706"/>
      <point x="385" y="708"/>
      <point x="385" y="720" type="curve" smooth="yes"/>
      <point x="385" y="731"/>
      <point x="365" y="734"/>
      <point x="325" y="734" type="curve" smooth="yes"/>
    </contour>
    <contour>
      <point x="102" y="734"/>
      <point x="69" y="728"/>
      <point x="57" y="707" type="curve" smooth="yes"/>
      <point x="11" y="626"/>
      <point x="-8" y="601"/>
      <point x="-8" y="590" type="curve" smooth="yes"/>
      <point x="-8" y="579"/>
      <point x="-1" y="575"/>
      <point x="23" y="575" type="curve" smooth="yes"/>
      <point x="70" y="575"/>
      <point x="87" y="588"/>
      <point x="98" y="600" type="curve" smooth="yes"/>
      <point x="195" y="706"/>
      <point x="202" y="708"/>
      <point x="202" y="720" type="curve" smooth="yes"/>
      <point x="202" y="731"/>
      <point x="182" y="734"/>
      <point x="142" y="734" type="curve" smooth="yes"/>
    </contour>
    <contour>
      <point x="147" y="700" type="move" name="top"/>
    </contour>
    <contour>
      <point x="146" y="523" type="move" name="_top"/>
    </contour>
  </outline>
</glyph>
<glyph name="uni0304" format="1">
  <advance width="0"/>
  <unicode hex="0304"/>
  <outline>
    <component base="macron" xOffset="-154"/>
    <contour>
      <point x="6" y="700" type="move" name="top"/>
    </contour>
    <contour>
      <point x="5" y="523" type="move" name="_top"/>
    </contour>
  </outline>
</glyph>
<glyph name="uni031B" format="1">
  <advance width="600"/>
  <unicode hex="031B"/>
  <outline>
    <contour>
      <point x="445" y="617" type="line" smooth="yes"/>
      <point x="437" y="612"/>
      <point x="434" y="605"/>
      <point x="434" y="598" type="curve" smooth="yes"/>
      <point x="434" y="585"/>
      <point x="460" y="568"/>
      <point x="460" y="546" type="curve" smooth="yes"/>
      <point x="460" y="523"/>
      <point x="447" y="510"/>
      <point x="413" y="510" type="curve"/>
      <point x="355" y="510" type="line"/>
      <point x="408" y="467" type="line"/>
      <point x="500" y="467"/>
      <point x="540" y="504"/>
      <point x="540" y="561" type="curve" smooth="yes"/>
      <point x="540" y="591"/>
      <point x="519" y="644"/>
      <point x="493" y="644" type="curve" smooth="yes"/>
      <point x="487" y="644"/>
      <point x="482" y="643"/>
      <point x="477" y="639" type="curve" smooth="yes"/>
    </contour>
    <contour>
      <point x="355" y="510" type="move" name="_horn"/>
    </contour>
    <contour>
      <point x="266" y="530" type="move" name="top"/>
    </contour>
  </outline>
</glyph>
<glyph name="quoteright" format="1">
  <advance width="212"/>
  <unicode hex="2019"/>
  <outline>
    <contour>
      <point x="123" y="757" type="line" smooth="yes"/>
      <point x="81" y="757"/>
      <point x="63" y="740"/>
      <point x="63" y="713" type="curve" smooth="yes"/>
      <point x="63" y="611"/>
      <point x="39" y="561"/>
      <point x="26" y="529" type="curve" smooth="yes"/>
      <point x="22" y="517"/>
      <point x="19" y="508"/>
      <point x="19" y="500" type="curve" smooth="yes"/>
      <point x="19" y="484"/>
      <point x="46" y="478"/>
      <point x="64" y="478" type="curve" smooth="yes"/>
      <point x="108" y="478"/>
      <point x="202" y="601"/>
      <point x="202" y="713" type="curve" smooth="yes"/>
      <point x="202" y="738"/>
      <point x="184" y="757"/>
      <point x="142" y="757" type="curve" smooth="yes"/>
    </contour>
  </outline>
</glyph>
<glyph name="bullet" format="1">
  <advance width="336"/>
  <unicode hex="2022"/>
  <outline>
    <contour>
      <point x="95" y="459"/>
      <point x="36" y="399"/>
      <point x="36" y="326" type="curve" smooth="yes"/>
      <point x="36" y="253"/>
      <point x="95" y="194"/>
      <point x="168" y="194" type="curve" smooth="yes"/>
      <point x="241" y="194"/>
      <point x="301" y="253"/>
      <point x="301" y="326" type="curve" smooth="yes"/>
      <point x="301" y="399"/>
      <point x="241" y="459"/>
      <point x="168" y="459" type="curve" smooth="yes"/>
    </contour>
  </outline>
</glyph>
<glyph name="uni2154" format="1">
  <advance width="826"/>
  <unicode hex="2154"/>
  <outline>
    <contour>
      <point x="602" y="700" type="line" smooth="yes"/>
      <point x="582" y="700"/>
      <point x="567" y="692"/>
      <point x="557" y="674" type="curve" smooth="yes"/>
      <point x="198" y="26" type="line" smooth="yes"/>
      <point x="194" y="20"/>
      <point x="192" y="15"/>
      <point x="192" y="11" type="curve" smooth="yes"/>
      <point x="192" y="3"/>
      <point x="199" y="0"/>
      <point x="213" y="0" type="curve" smooth="yes"/>
      <point x="230" y="0" type="line" smooth="yes"/>
      <point x="250" y="0"/>
      <point x="264" y="7"/>
      <point x="275" y="26" type="curve" smooth="yes"/>
      <point x="634" y="674" type="line" smooth="yes"/>
      <point x="638" y="680"/>
      <point x="640" y="685"/>
      <point x="640" y="689" type="curve" smooth="yes"/>
      <point x="640" y="696"/>
      <point x="633" y="700"/>
      <point x="619" y="700" type="curve" smooth="yes"/>
    </contour>
    <contour>
      <point x="589" y="414"/>
      <point x="533" y="400"/>
      <point x="533" y="371" type="curve" smooth="yes"/>
      <point x="533" y="355"/>
      <point x="551" y="326"/>
      <point x="563" y="326" type="curve" smooth="yes"/>
      <point x="573" y="326"/>
      <point x="587" y="345"/>
      <point x="632" y="345" type="curve" smooth="yes"/>
      <point x="664" y="345"/>
      <point x="680" y="326"/>
      <point x="680" y="297" type="curve" smooth="yes"/>
      <point x="680" y="268"/>
      <point x="657" y="248"/>
      <point x="619" y="248" type="curve" smooth="yes"/>
      <point x="608" y="248" type="line" smooth="yes"/>
      <point x="596" y="248"/>
      <point x="590" y="240"/>
      <point x="590" y="219" type="curve" smooth="yes"/>
      <point x="590" y="208" type="line" smooth="yes"/>
      <point x="590" y="188"/>
      <point x="596" y="179"/>
      <point x="608" y="179" type="curve" smooth="yes"/>
      <point x="624" y="179" type="line" smooth="yes"/>
      <point x="674" y="179"/>
      <point x="693" y="158"/>
      <point x="693" y="119" type="curve" smooth="yes"/>
      <point x="693" y="83"/>
      <point x="670" y="62"/>
      <point x="635" y="62" type="curve" smooth="yes"/>
      <point x="587" y="62"/>
      <point x="560" y="86"/>
      <point x="550" y="86" type="curve" smooth="yes"/>
      <point x="536" y="86"/>
      <point x="521" y="53"/>
      <point x="521" y="42" type="curve" smooth="yes"/>
      <point x="521" y="5"/>
      <point x="604" y="-7"/>
      <point x="648" y="-7" type="curve" smooth="yes"/>
      <point x="727" y="-7"/>
      <point x="781" y="40"/>
      <point x="781" y="118" type="curve" smooth="yes"/>
      <point x="781" y="166"/>
      <point x="759" y="204"/>
      <point x="713" y="222" type="curve"/>
      <point x="713" y="226" type="line"/>
      <point x="747" y="241"/>
      <point x="768" y="271"/>
      <point x="768" y="311" type="curve" smooth="yes"/>
      <point x="768" y="374"/>
      <point x="721" y="414"/>
      <point x="647" y="414" type="curve" smooth="yes"/>
    </contour>
    <contour>
      <point x="101" y="707"/>
      <point x="40" y="688"/>
      <point x="40" y="654" type="curve" smooth="yes"/>
      <point x="40" y="638"/>
      <point x="56" y="614"/>
      <point x="74" y="614" type="curve" smooth="yes"/>
      <point x="82" y="614"/>
      <point x="104" y="638"/>
      <point x="142" y="638" type="curve" smooth="yes"/>
      <point x="172" y="638"/>
      <point x="196" y="623"/>
      <point x="196" y="591" type="curve" smooth="yes"/>
      <point x="196" y="569"/>
      <point x="187" y="550"/>
      <point x="174" y="534" type="curve" smooth="yes"/>
      <point x="26" y="354" type="line" smooth="yes"/>
      <point x="25" y="352"/>
      <point x="24" y="349"/>
      <point x="24" y="345" type="curve" smooth="yes"/>
      <point x="24" y="328"/>
      <point x="32" y="293"/>
      <point x="41" y="293" type="curve" smooth="yes"/>
      <point x="273" y="293" type="line" smooth="yes"/>
      <point x="286" y="293"/>
      <point x="291" y="302"/>
      <point x="291" y="323" type="curve" smooth="yes"/>
      <point x="291" y="333" type="line" smooth="yes"/>
      <point x="291" y="353"/>
      <point x="286" y="361"/>
      <point x="273" y="361" type="curve" smooth="yes"/>
      <point x="139" y="361" type="line"/>
      <point x="248" y="497" type="line" smooth="yes"/>
      <point x="269" y="523"/>
      <point x="284" y="555"/>
      <point x="284" y="593" type="curve" smooth="yes"/>
      <point x="284" y="659"/>
      <point x="238" y="707"/>
      <point x="157" y="707" type="curve" smooth="yes"/>
    </contour>
  </outline>
</glyph>
<glyph name="arrowleft" format="1">
  <advance width="750"/>
  <unicode hex="2190"/>
  <outline>
    <contour>
      <point x="284" y="527" type="line" smooth="yes"/>
      <point x="263" y="527"/>
      <point x="248" y="521"/>
      <point x="233" y="506" type="curve" smooth="yes"/>
      <point x="7" y="281" type="line" smooth="yes"/>
      <point x="2" y="276"/>
      <point x="0" y="271"/>
      <point x="0" y="263" type="curve" smooth="yes"/>
      <point x="0" y="255"/>
      <point x="2" y="250"/>
      <point x="7" y="245" type="curve" smooth="yes"/>
      <point x="234" y="19" type="line" smooth="yes"/>
      <point x="249" y="4"/>
      <point x="264" y="-2"/>
      <point x="285" y="-2" type="curve" smooth="yes"/>
      <point x="371" y="-2" type="line" smooth="yes"/>
      <point x="383" y="-2"/>
      <point x="390" y="0"/>
      <point x="390" y="5" type="curve" smooth="yes"/>
      <point x="390" y="8"/>
      <point x="386" y="13"/>
      <point x="380" y="19" type="curve" smooth="yes"/>
      <point x="186" y="210" type="line"/>
      <point x="719" y="210" type="line" smooth="yes"/>
      <point x="740" y="210"/>
      <point x="751" y="223"/>
      <point x="751" y="254" type="curve" smooth="yes"/>
      <point x="751" y="273" type="line" smooth="yes"/>
      <point x="751" y="304"/>
      <point x="740" y="317"/>
      <point x="719" y="317" type="curve" smooth="yes"/>
      <point x="187" y="317" type="line"/>
      <point x="379" y="506" type="line" smooth="yes"/>
      <point x="385" y="512"/>
      <point x="389" y="517"/>
      <point x="389" y="520" type="curve" smooth="yes"/>
      <point x="389" y="525"/>
      <point x="382" y="527"/>
      <point x="370" y="527" type="curve" smooth="yes"/>
    </contour>
  </outline>
</glyph>
<glyph name="notequal" format="1">
  <advance width="560"/>
  <unicode hex="2260"/>
  <outline>
    <contour>
      <point x="436" y="436" type="line" smooth="yes"/>
      <point x="404" y="436"/>
      <point x="384" y="429"/>
      <point x="368" y="410" type="curve" smooth="yes"/>
      <point x="339" y="374" type="line"/>
      <point x="71" y="374" type="line" smooth="yes"/>
      <point x="50" y="374"/>
      <point x="41" y="359"/>
      <point x="41" y="324" type="curve" smooth="yes"/>
      <point x="41" y="317" type="line" smooth="yes"/>
      <point x="41" y="282"/>
      <point x="50" y="267"/>
      <point x="71" y="267" type="curve" smooth="yes"/>
      <point x="255" y="267" type="line"/>
      <point x="197" y="193" type="line"/>
      <point x="71" y="193" type="line" smooth="yes"/>
      <point x="50" y="193"/>
      <point x="41" y="178"/>
      <point x="41" y="143" type="curve" smooth="yes"/>
      <point x="41" y="136" type="line" smooth="yes"/>
      <point x="41" y="101"/>
      <point x="50" y="86"/>
      <point x="71" y="86" type="curve" smooth="yes"/>
      <point x="114" y="86" type="line"/>
      <point x="72" y="32" type="line" smooth="yes"/>
      <point x="66" y="25"/>
      <point x="64" y="20"/>
      <point x="64" y="17" type="curve" smooth="yes"/>
      <point x="64" y="11"/>
      <point x="76" y="6"/>
      <point x="103" y="6" type="curve" smooth="yes"/>
      <point x="128" y="6" type="line" smooth="yes"/>
      <point x="160" y="6"/>
      <point x="180" y="12"/>
      <point x="196" y="32" type="curve" smooth="yes"/>
      <point x="239" y="86" type="line"/>
      <point x="489" y="86" type="line" smooth="yes"/>
      <point x="510" y="86"/>
      <point x="519" y="101"/>
      <point x="519" y="136" type="curve" smooth="yes"/>
      <point x="519" y="143" type="line" smooth="yes"/>
      <point x="519" y="178"/>
      <point x="510" y="193"/>
      <point x="489" y="193" type="curve" smooth="yes"/>
      <point x="322" y="193" type="line"/>
      <point x="380" y="267" type="line"/>
      <point x="489" y="267" type="line" smooth="yes"/>
      <point x="510" y="267"/>
      <point x="519" y="282"/>
      <point x="519" y="317" type="curve" smooth="yes"/>
      <point x="519" y="324" type="line" smooth="yes"/>
      <point x="519" y="359"/>
      <point x="510" y="374"/>
      <point x="489" y="374" type="curve" smooth="yes"/>
      <point x="464" y="374" type="line"/>
      <point x="493" y="411" type="line" smooth="yes"/>
      <point x="497" y="417"/>
      <point x="500" y="421"/>
      <point x="500" y="425" type="curve" smooth="yes"/>
      <point x="500" y="431"/>
      <point x="488" y="436"/>
      <point x="461" y="436" type="curve" smooth="yes"/>
    </contour>
  </outline>
</glyph>
<glyph name="lessequal" format="1">
  <advance width="566"/>
  <unicode hex="2264"/>
  <outline>
    <contour>
      <point x="495" y="559"/>
      <point x="491" y="558"/>
      <point x="485" y="556" type="curve" smooth="yes"/>
      <point x="66" y="395" type="line" smooth="yes"/>
      <point x="46" y="387"/>
      <point x="38" y="375"/>
      <point x="38" y="354" type="curve" smooth="yes"/>
      <point x="38" y="335" type="line" smooth="yes"/>
      <point x="38" y="314"/>
      <point x="46" y="302"/>
      <point x="66" y="294" type="curve"/>
      <point x="486" y="132" type="line" smooth="yes"/>
      <point x="492" y="130"/>
      <point x="496" y="128"/>
      <point x="500" y="128" type="curve" smooth="yes"/>
      <point x="510" y="128"/>
      <point x="514" y="142"/>
      <point x="514" y="171" type="curve" smooth="yes"/>
      <point x="514" y="197" type="line" smooth="yes"/>
      <point x="514" y="218"/>
      <point x="506" y="230"/>
      <point x="486" y="237" type="curve" smooth="yes"/>
      <point x="193" y="344" type="line"/>
      <point x="485" y="451" type="line" smooth="yes"/>
      <point x="506" y="459"/>
      <point x="513" y="480"/>
      <point x="513" y="511" type="curve" smooth="yes"/>
      <point x="513" y="517" type="line" smooth="yes"/>
      <point x="513" y="546"/>
      <point x="509" y="559"/>
      <point x="499" y="559" type="curve" smooth="yes"/>
    </contour>
    <contour>
      <point x="68" y="107" type="line" smooth="yes"/>
      <point x="47" y="107"/>
      <point x="38" y="92"/>
      <point x="38" y="57" type="curve" smooth="yes"/>
      <point x="38" y="50" type="line" smooth="yes"/>
      <point x="38" y="15"/>
      <point x="47" y="0"/>
      <point x="68" y="0" type="curve" smooth="yes"/>
      <point x="485" y="0" type="line" smooth="yes"/>
      <point x="506" y="0"/>
      <point x="515" y="15"/>
      <point x="515" y="50" type="curve" smooth="yes"/>
      <point x="515" y="57" type="line" smooth="yes"/>
      <point x="515" y="92"/>
      <point x="506" y="107"/>
      <point x="485" y="107" type="curve" smooth="yes"/>
    </contour>
  </outline>
</glyph>
<glyph name="lozenge" format="1">
  <advance width="558"/>
  <unicode hex="25CA"/>
  <outline>
    <contour>
      <point x="272" y="710" type="line" smooth="yes"/>
      <point x="243" y="710"/>
      <point x="221" y="704"/>
      <point x="211" y="685" type="curve" smooth="yes"/>
      <point x="47" y="372" type="line" smooth="yes"/>
      <point x="43" y="364"/>
      <point x="41" y="356"/>
      <point x="41" y="348" type="curve" smooth="yes"/>
      <point x="41" y="340"/>
      <point x="43" y="333"/>
      <point x="47" y="324" type="curve" smooth="yes"/>
      <point x="207" y="17" type="line" smooth="yes"/>
      <point x="217" y="-2"/>
      <point x="239" y="-8"/>
      <point x="268" y="-8" type="curve" smooth="yes"/>
      <point x="292" y="-8" type="line" smooth="yes"/>
      <point x="321" y="-8"/>
      <point x="343" y="-2"/>
      <point x="353" y="17" type="curve" smooth="yes"/>
      <point x="513" y="324" type="line" smooth="yes"/>
      <point x="517" y="333"/>
      <point x="519" y="340"/>
      <point x="519" y="348" type="curve" smooth="yes"/>
      <point x="519" y="356"/>
      <point x="517" y="364"/>
      <point x="513" y="372" type="curve" smooth="yes"/>
      <point x="349" y="685" type="line" smooth="yes"/>
      <point x="339" y="704"/>
      <point x="317" y="710"/>
      <point x="288" y="710" type="curve" smooth="yes"/>
    </contour>
    <contour>
      <point x="383" y="348" type="line"/>
      <point x="280" y="132" type="line"/>
      <point x="177" y="348" type="line"/>
      <point x="280" y="561" type="line"/>
    </contour>
  </outline>
</glyph>
<glyph name="Y.loclGUA" format="1">
  <advance width="559"/>
  <outline>
    <contour>
      <point x="428" y="701" type="line" smooth="yes"/>
      <point x="386" y="701"/>
      <point x="368" y="690"/>
      <point x="368" y="669" type="curve" smooth="yes"/>
      <point x="368" y="388" type="line"/>
      <point x="356" y="365"/>
      <point x="331" y="330"/>
      <point x="288" y="330" type="curve" smooth="yes"/>
      <point x="230" y="330"/>
      <point x="208" y="353"/>
      <point x="208" y="392" type="curve" smooth="yes"/>
      <point x="208" y="669" type="line" smooth="yes"/>
      <point x="208" y="690"/>
      <point x="190" y="701"/>
      <point x="148" y="701" type="curve" smooth="yes"/>
      <point x="120" y="701" type="line" smooth="yes"/>
      <point x="78" y="701"/>
      <point x="60" y="690"/>
      <point x="60" y="669" type="curve" smooth="yes"/>
      <point x="60" y="370" type="line" smooth="yes"/>
      <point x="60" y="259"/>
      <point x="113" y="208"/>
      <point x="227" y="208" type="curve" smooth="yes"/>
      <point x="303" y="208"/>
      <point x="365" y="260"/>
      <point x="388" y="303" type="curve"/>
      <point x="368" y="341" type="line"/>
      <point x="368" y="242" type="line" smooth="yes"/>
      <point x="368" y="154"/>
      <point x="329" y="108"/>
      <point x="251" y="108" type="curve" smooth="yes"/>
      <point x="155" y="108"/>
      <point x="96" y="149"/>
      <point x="81" y="149" type="curve" smooth="yes"/>
      <point x="74" y="149"/>
      <point x="68" y="139"/>
      <point x="68" y="109" type="curve" smooth="yes"/>
      <point x="68" y="97"/>
      <point x="69" y="81"/>
      <point x="71" y="62" type="curve" smooth="yes"/>
      <point x="75" y="20"/>
      <point x="175" y="-9"/>
      <point x="293" y="-9" type="curve" smooth="yes"/>
      <point x="449" y="-9"/>
      <point x="516" y="93"/>
      <point x="516" y="296" type="curve" smooth="yes"/>
      <point x="516" y="669" type="line" smooth="yes"/>
      <point x="516" y="690"/>
      <point x="498" y="701"/>
      <point x="456" y="701" type="curve" smooth="yes"/>
    </contour>
    <contour>
      <point x="280" y="700" type="move" name="top"/>
    </contour>
    <contour>
      <point x="261" y="0" type="move" name="bottom"/>
    </contour>
  </outline>
</glyph>
<glyph name="circumflex.alt2" format="1">
  <advance width="320"/>
  <outline>
    <contour>
      <point x="151" y="694" type="line" smooth="yes"/>
      <point x="122" y="694"/>
      <point x="105" y="691"/>
      <point x="90" y="675" type="curve" smooth="yes"/>
      <point x="25" y="597" type="line" smooth="yes"/>
      <point x="21" y="591"/>
      <point x="19" y="586"/>
      <point x="19" y="582" type="curve" smooth="yes"/>
      <point x="19" y="575"/>
      <point x="25" y="572"/>
      <point x="39" y="572" type="curve" smooth="yes"/>
      <point x="61" y="572" type="line" smooth="yes"/>
      <point x="90" y="572"/>
      <point x="104" y="583"/>
      <point x="128" y="597" type="curve" smooth="yes"/>
      <point x="156" y="623" type="line"/>
      <point x="184" y="596" type="line" smooth="yes"/>
      <point x="205" y="583"/>
      <point x="223" y="572"/>
      <point x="252" y="572" type="curve" smooth="yes"/>
      <point x="274" y="572" type="line" smooth="yes"/>
      <point x="287" y="572"/>
      <point x="294" y="575"/>
      <point x="294" y="582" type="curve" smooth="yes"/>
      <point x="294" y="586"/>
      <point x="292" y="591"/>
      <point x="288" y="597" type="curve" smooth="yes"/>
      <point x="223" y="675" type="line" smooth="yes"/>
      <point x="208" y="691"/>
      <point x="191" y="694"/>
      <point x="162" y="694" type="curve" smooth="yes"/>
    </contour>
    <contour>
      <point x="153" y="745" type="move" name="tilde"/>
    </contour>
    <contour>
      <point x="287" y="660" type="move" name="top"/>
    </contour>
    <contour>
      <point x="157" y="523" type="move" name="_top"/>
    </contour>
  </outline>
</glyph>
<glyph name="quotesingle.loclGUA" format="1">
  <advance width="180"/>
  <outline>
    <contour>
      <point x="87" y="700" type="line" smooth="yes"/>
      <point x="45" y="700"/>
      <point x="27" y="683"/>
      <point x="27" y="656" type="curve"/>
      <point x="31" y="403" type="line"/>
      <point x="31" y="387"/>
      <point x="58" y="381"/>
      <point x="76" y="381" type="curve" smooth="yes"/>
      <point x="102" y="383"/>
      <point x="156" y="493"/>
      <point x="156" y="656" type="curve" smooth="yes"/>
      <point x="156" y="681"/>
      <point x="141" y="700"/>
      <point x="106" y="700" type="curve" smooth="yes"/>
    </contour>
  </outline>
</glyph>
<glyph name="y.loclGUA" format="1">
  <advance width="557"/>
  <outline>
    <contour>
      <point x="407" y="525" type="line" smooth="yes"/>
      <point x="365" y="525"/>
      <point x="347" y="514"/>
      <point x="347" y="493" type="curve" smooth="yes"/>
      <point x="347" y="172" type="line"/>
      <point x="335" y="149"/>
      <point x="308" y="114"/>
      <point x="267" y="114" type="curve" smooth="yes"/>
      <point x="223" y="114"/>
      <point x="207" y="137"/>
      <point x="207" y="176" type="curve" smooth="yes"/>
      <point x="207" y="493" type="line" smooth="yes"/>
      <point x="207" y="514"/>
      <point x="189" y="525"/>
      <point x="147" y="525" type="curve" smooth="yes"/>
      <point x="119" y="525" type="line" smooth="yes"/>
      <point x="77" y="525"/>
      <point x="59" y="514"/>
      <point x="59" y="493" type="curve" smooth="yes"/>
      <point x="59" y="154" type="line" smooth="yes"/>
      <point x="59" y="43"/>
      <point x="106" y="-8"/>
      <point x="206" y="-8" type="curve" smooth="yes"/>
      <point x="288" y="-8"/>
      <point x="354" y="52"/>
      <point x="372" y="97" type="curve"/>
      <point x="355" y="135" type="line"/>
      <point x="355" y="33" type="line" smooth="yes"/>
      <point x="355" y="-49"/>
      <point x="307" y="-95"/>
      <point x="230" y="-95" type="curve" smooth="yes"/>
      <point x="152" y="-95"/>
      <point x="102" y="-54"/>
      <point x="90" y="-54" type="curve" smooth="yes"/>
      <point x="83" y="-54"/>
      <point x="77" y="-64"/>
      <point x="77" y="-94" type="curve" smooth="yes"/>
      <point x="77" y="-106"/>
      <point x="78" y="-122"/>
      <point x="80" y="-141" type="curve" smooth="yes"/>
      <point x="84" y="-183"/>
      <point x="169" y="-212"/>
      <point x="272" y="-212" type="curve" smooth="yes"/>
      <point x="428" y="-212"/>
      <point x="497" y="-110"/>
      <point x="495" y="93" type="curve"/>
      <point x="495" y="493" type="line" smooth="yes"/>
      <point x="495" y="514"/>
      <point x="477" y="525"/>
      <point x="435" y="525" type="curve" smooth="yes"/>
    </contour>
    <contour>
      <point x="279" y="523" type="move" name="top"/>
    </contour>
    <contour>
      <point x="531" y="-36" type="move" name="bottom"/>
    </contour>
  </outline>
</glyph>
